<?xml version="1.0" standalone="no"?>
<!DOCTYPE svg PUBLIC "-//W3C//DTD SVG 20010904//EN"
 "http://www.w3.org/TR/2001/REC-SVG-20010904/DTD/svg10.dtd">
<svg version="1.0" xmlns="http://www.w3.org/2000/svg"
 width="512.000000pt" height="512.000000pt" viewBox="0 0 512.000000 512.000000"
 preserveAspectRatio="xMidYMid meet">
<metadata>
Created by potrace 1.14, written by Peter Selinger 2001-2017
</metadata>
<g transform="translate(0.000000,512.000000) scale(0.100000,-0.100000)"
fill="#000000" stroke="none">
<path d="M2379 5116 c-2 -2 -35 -6 -74 -10 -69 -6 -81 -8 -160 -20 -34 -6
-123 -23 -160 -32 -5 -1 -21 -4 -35 -7 -68 -15 -216 -62 -222 -71 -4 -6 -8 -8
-8 -3 0 4 -15 1 -34 -7 -19 -8 -37 -12 -40 -8 -3 3 -6 0 -6 -6 0 -7 -8 -12
-18 -12 -10 0 -22 -3 -26 -7 -4 -5 -11 -8 -14 -8 -18 -2 -52 -17 -52 -24 0 -4
-6 -8 -12 -8 -17 0 -124 -50 -169 -79 -20 -12 -40 -20 -43 -17 -3 4 -6 1 -6
-5 0 -7 -7 -12 -15 -12 -8 0 -15 -3 -15 -8 0 -4 -15 -14 -32 -21 -18 -8 -49
-26 -69 -40 -20 -14 -47 -33 -59 -41 -52 -34 -217 -165 -247 -196 -18 -18 -33
-31 -33 -28 0 6 -133 -129 -202 -205 -25 -28 -43 -51 -40 -51 4 0 2 -4 -3 -8
-16 -11 -95 -109 -95 -117 0 -4 -15 -25 -33 -48 -19 -23 -44 -61 -57 -84 -13
-24 -27 -43 -32 -43 -4 0 -8 -9 -8 -20 0 -11 -4 -20 -8 -20 -9 0 -45 -67 -46
-85 -1 -6 -29 -10 -63 -9 -64 0 -68 -2 -79 -48 -1 -5 -3 -9 -4 -10 -5 -6 -6
-84 -1 -93 3 -5 7 -19 8 -30 2 -10 8 -22 13 -25 7 -5 7 -30 0 -50 -1 -3 -2 -8
-1 -12 0 -5 -4 -8 -11 -8 -6 0 -9 -3 -6 -6 4 -3 0 -21 -8 -40 -8 -19 -12 -40
-8 -46 4 -7 3 -8 -4 -4 -7 4 -14 -7 -18 -31 -4 -21 -11 -49 -17 -63 -11 -27
-13 -33 -20 -70 -3 -14 -8 -32 -11 -40 -5 -14 -8 -29 -21 -97 -3 -16 -10 -48
-15 -73 -27 -126 -35 -232 -34 -460 0 -183 3 -241 19 -345 3 -16 7 -43 9 -60
10 -66 25 -141 30 -155 3 -8 8 -26 10 -40 11 -52 40 -155 45 -160 3 -3 6 -9 7
-15 2 -22 28 -95 33 -95 6 0 10 -18 13 -57 1 -7 4 -13 8 -13 3 0 12 -17 19
-37 13 -37 83 -180 132 -273 32 -60 134 -216 159 -242 11 -12 20 -26 20 -31 0
-4 6 -14 13 -21 6 -7 28 -32 47 -57 79 -99 319 -344 328 -335 1 2 15 -8 31
-23 67 -64 288 -221 310 -221 6 0 11 -4 11 -9 0 -5 8 -11 18 -14 9 -3 41 -20
70 -36 28 -17 52 -27 52 -23 0 4 4 3 8 -3 9 -12 116 -66 138 -69 9 -1 19 -8
23 -15 5 -7 12 -12 17 -11 5 0 16 -1 24 -3 8 -2 17 -4 20 -5 3 0 31 -12 63
-26 31 -14 57 -23 57 -20 0 4 6 2 13 -4 6 -6 15 -11 20 -11 4 -1 8 -1 10 -2 1
0 10 -2 20 -5 27 -6 41 -11 57 -17 19 -7 174 -44 215 -51 17 -2 44 -7 60 -10
122 -23 222 -30 420 -31 164 0 224 3 365 19 14 2 50 8 80 14 30 7 67 14 82 16
52 9 203 48 208 55 3 3 14 7 25 9 21 3 29 5 55 15 8 3 53 19 100 35 47 17 109
42 137 56 29 14 60 26 68 26 8 0 15 4 15 9 0 9 19 18 45 22 6 1 15 9 22 18 7
9 13 13 13 9 0 -4 36 15 81 42 44 28 85 50 90 50 5 0 9 4 9 8 0 5 11 14 25 20
14 7 31 16 38 22 7 6 39 30 72 55 137 101 345 291 345 314 0 5 8 12 18 15 9 3
28 22 41 42 13 19 35 45 48 57 12 12 23 28 23 35 0 7 5 10 10 7 6 -3 10 -2 10
2 0 5 21 38 48 74 52 74 59 83 105 154 29 45 72 124 134 244 12 25 20 48 17
53 -3 4 -1 8 4 8 5 0 20 27 32 60 12 33 27 60 32 60 5 0 7 4 4 9 -3 5 5 39 19
75 14 36 21 66 17 66 -4 0 -2 4 4 8 9 6 17 27 40 117 3 11 7 31 10 45 3 14 7
32 9 40 2 8 4 16 5 18 2 1 3 10 4 20 1 9 5 31 9 47 29 129 41 272 42 480 0
169 -8 308 -21 365 -3 14 -7 39 -9 55 -9 69 -16 105 -25 129 -5 14 -8 26 -5
26 2 0 -5 29 -15 65 -10 36 -16 65 -13 65 3 0 0 6 -6 13 -6 8 -12 22 -15 33
-12 59 -19 84 -25 84 -4 0 -8 12 -9 26 -1 15 -6 32 -10 38 -5 6 -15 26 -22 44
-11 29 -11 34 4 45 35 26 43 162 12 196 -13 14 -29 17 -76 15 -53 -3 -59 -2
-66 18 -4 13 -15 34 -24 48 -9 14 -32 51 -51 83 -19 32 -42 67 -51 77 -10 11
-18 22 -18 26 0 10 -82 118 -92 122 -4 2 -8 10 -8 17 0 7 -7 16 -16 19 -9 4
-15 9 -12 12 9 9 -231 258 -312 324 -24 19 -48 40 -54 45 -6 6 -40 33 -76 60
-36 27 -67 53 -68 57 -2 5 -8 6 -13 2 -5 -3 -12 2 -15 10 -3 9 -12 16 -19 16
-7 0 -23 9 -36 19 -29 22 -74 49 -149 89 -30 16 -85 45 -122 65 -38 20 -68 34
-68 31 0 -2 -11 3 -24 12 -14 8 -26 15 -28 13 -2 -1 -19 5 -38 14 -19 8 -64
25 -100 37 -36 12 -74 26 -85 31 -17 7 -67 21 -125 35 -8 2 -44 10 -80 19 -36
9 -83 19 -104 21 -22 3 -43 7 -46 9 -3 2 -33 7 -65 10 -33 4 -69 9 -80 12 -23
5 -451 14 -456 9z"/>
</g>
</svg>
